<mxfile host="app.diagrams.net" modified="2023-07-14T01:29:58.343Z" agent="Mozilla/5.0 (Windows NT 10.0; Win64; x64) AppleWebKit/537.36 (KHTML, like Gecko) Chrome/114.0.0.0 Safari/537.36" etag="d-j30ztU3gKpE5y0nrqi" version="21.6.2" type="github">
  <diagram id="C5RBs43oDa-KdzZeNtuy" name="Page-1">
    <mxGraphModel dx="880" dy="522" grid="1" gridSize="10" guides="1" tooltips="1" connect="1" arrows="1" fold="1" page="1" pageScale="1" pageWidth="827" pageHeight="1169" background="#000000" math="0" shadow="0">
      <root>
        <mxCell id="WIyWlLk6GJQsqaUBKTNV-0" />
        <mxCell id="WIyWlLk6GJQsqaUBKTNV-1" parent="WIyWlLk6GJQsqaUBKTNV-0" />
        <mxCell id="vX1J8GAk55mvpKs6fqmA-2" value="" style="edgeStyle=orthogonalEdgeStyle;rounded=1;orthogonalLoop=1;jettySize=auto;html=1;" parent="WIyWlLk6GJQsqaUBKTNV-1" source="vX1J8GAk55mvpKs6fqmA-0" target="vX1J8GAk55mvpKs6fqmA-1" edge="1">
          <mxGeometry relative="1" as="geometry" />
        </mxCell>
        <mxCell id="vX1J8GAk55mvpKs6fqmA-0" value="start" style="ellipse;whiteSpace=wrap;html=1;rounded=1;" parent="WIyWlLk6GJQsqaUBKTNV-1" vertex="1">
          <mxGeometry x="369" y="10" width="90" height="60" as="geometry" />
        </mxCell>
        <mxCell id="vX1J8GAk55mvpKs6fqmA-4" value="" style="edgeStyle=orthogonalEdgeStyle;rounded=1;orthogonalLoop=1;jettySize=auto;html=1;" parent="WIyWlLk6GJQsqaUBKTNV-1" source="vX1J8GAk55mvpKs6fqmA-1" target="vX1J8GAk55mvpKs6fqmA-3" edge="1">
          <mxGeometry relative="1" as="geometry" />
        </mxCell>
        <mxCell id="vX1J8GAk55mvpKs6fqmA-1" value="input deret angka" style="shape=parallelogram;perimeter=parallelogramPerimeter;whiteSpace=wrap;html=1;fixedSize=1;rounded=1;" parent="WIyWlLk6GJQsqaUBKTNV-1" vertex="1">
          <mxGeometry x="354" y="100" width="120" height="60" as="geometry" />
        </mxCell>
        <mxCell id="vX1J8GAk55mvpKs6fqmA-5" style="edgeStyle=orthogonalEdgeStyle;rounded=1;orthogonalLoop=1;jettySize=auto;html=1;exitX=1;exitY=0.5;exitDx=0;exitDy=0;entryX=1;entryY=0.5;entryDx=0;entryDy=0;" parent="WIyWlLk6GJQsqaUBKTNV-1" source="vX1J8GAk55mvpKs6fqmA-3" target="vX1J8GAk55mvpKs6fqmA-1" edge="1">
          <mxGeometry relative="1" as="geometry">
            <Array as="points">
              <mxPoint x="484" y="250" />
              <mxPoint x="484" y="130" />
            </Array>
          </mxGeometry>
        </mxCell>
        <mxCell id="vX1J8GAk55mvpKs6fqmA-6" value="false" style="edgeLabel;html=1;align=center;verticalAlign=middle;resizable=0;points=[];rounded=1;" parent="vX1J8GAk55mvpKs6fqmA-5" vertex="1" connectable="0">
          <mxGeometry x="0.1125" y="-3" relative="1" as="geometry">
            <mxPoint as="offset" />
          </mxGeometry>
        </mxCell>
        <mxCell id="vX1J8GAk55mvpKs6fqmA-8" value="" style="edgeStyle=orthogonalEdgeStyle;rounded=1;orthogonalLoop=1;jettySize=auto;html=1;" parent="WIyWlLk6GJQsqaUBKTNV-1" source="vX1J8GAk55mvpKs6fqmA-3" target="vX1J8GAk55mvpKs6fqmA-7" edge="1">
          <mxGeometry relative="1" as="geometry" />
        </mxCell>
        <mxCell id="vX1J8GAk55mvpKs6fqmA-9" value="true" style="edgeLabel;html=1;align=center;verticalAlign=middle;resizable=0;points=[];rounded=1;" parent="vX1J8GAk55mvpKs6fqmA-8" vertex="1" connectable="0">
          <mxGeometry x="-0.44" y="-1" relative="1" as="geometry">
            <mxPoint x="1" as="offset" />
          </mxGeometry>
        </mxCell>
        <mxCell id="vX1J8GAk55mvpKs6fqmA-3" value="input =&lt;br&gt;deret angka" style="rhombus;whiteSpace=wrap;html=1;rounded=1;" parent="WIyWlLk6GJQsqaUBKTNV-1" vertex="1">
          <mxGeometry x="364" y="200" width="100" height="100" as="geometry" />
        </mxCell>
        <mxCell id="vX1J8GAk55mvpKs6fqmA-11" value="" style="edgeStyle=orthogonalEdgeStyle;rounded=1;orthogonalLoop=1;jettySize=auto;html=1;" parent="WIyWlLk6GJQsqaUBKTNV-1" source="vX1J8GAk55mvpKs6fqmA-7" target="vX1J8GAk55mvpKs6fqmA-10" edge="1">
          <mxGeometry relative="1" as="geometry" />
        </mxCell>
        <mxCell id="vX1J8GAk55mvpKs6fqmA-7" value="split input dengan &#39;0&#39; sebagai separator" style="whiteSpace=wrap;html=1;rounded=1;" parent="WIyWlLk6GJQsqaUBKTNV-1" vertex="1">
          <mxGeometry x="354" y="350" width="120" height="60" as="geometry" />
        </mxCell>
        <mxCell id="vX1J8GAk55mvpKs6fqmA-13" value="" style="edgeStyle=orthogonalEdgeStyle;rounded=1;orthogonalLoop=1;jettySize=auto;html=1;" parent="WIyWlLk6GJQsqaUBKTNV-1" source="vX1J8GAk55mvpKs6fqmA-10" target="vX1J8GAk55mvpKs6fqmA-12" edge="1">
          <mxGeometry relative="1" as="geometry" />
        </mxCell>
        <mxCell id="vX1J8GAk55mvpKs6fqmA-10" value="sort input" style="whiteSpace=wrap;html=1;rounded=1;" parent="WIyWlLk6GJQsqaUBKTNV-1" vertex="1">
          <mxGeometry x="354" y="440" width="120" height="60" as="geometry" />
        </mxCell>
        <mxCell id="vX1J8GAk55mvpKs6fqmA-15" value="" style="edgeStyle=orthogonalEdgeStyle;rounded=1;orthogonalLoop=1;jettySize=auto;html=1;" parent="WIyWlLk6GJQsqaUBKTNV-1" source="vX1J8GAk55mvpKs6fqmA-12" target="vX1J8GAk55mvpKs6fqmA-14" edge="1">
          <mxGeometry relative="1" as="geometry" />
        </mxCell>
        <mxCell id="vX1J8GAk55mvpKs6fqmA-12" value="join input" style="whiteSpace=wrap;html=1;rounded=1;" parent="WIyWlLk6GJQsqaUBKTNV-1" vertex="1">
          <mxGeometry x="354" y="530" width="120" height="60" as="geometry" />
        </mxCell>
        <mxCell id="vX1J8GAk55mvpKs6fqmA-17" style="edgeStyle=orthogonalEdgeStyle;rounded=1;orthogonalLoop=1;jettySize=auto;html=1;exitX=0.5;exitY=1;exitDx=0;exitDy=0;entryX=0.5;entryY=0;entryDx=0;entryDy=0;" parent="WIyWlLk6GJQsqaUBKTNV-1" source="vX1J8GAk55mvpKs6fqmA-14" target="vX1J8GAk55mvpKs6fqmA-16" edge="1">
          <mxGeometry relative="1" as="geometry" />
        </mxCell>
        <mxCell id="vX1J8GAk55mvpKs6fqmA-14" value="output =&lt;br&gt;input yg telah di &lt;br&gt;split, sort, &lt;br&gt;dan join" style="shape=parallelogram;perimeter=parallelogramPerimeter;whiteSpace=wrap;html=1;fixedSize=1;rounded=1;" parent="WIyWlLk6GJQsqaUBKTNV-1" vertex="1">
          <mxGeometry x="347" y="620" width="134" height="67" as="geometry" />
        </mxCell>
        <mxCell id="vX1J8GAk55mvpKs6fqmA-16" value="end" style="ellipse;whiteSpace=wrap;html=1;rounded=1;" parent="WIyWlLk6GJQsqaUBKTNV-1" vertex="1">
          <mxGeometry x="357" y="710" width="114" height="76" as="geometry" />
        </mxCell>
      </root>
    </mxGraphModel>
  </diagram>
</mxfile>
